<svg width="72" height="20" viewBox="0 0 72 20" fill="none" xmlns="http://www.w3.org/2000/svg">
<path fill-rule="evenodd" clip-rule="evenodd" d="M19.2471 14.2623C23.1288 14.2623 26.2755 11.0696 26.2755 7.13115C26.2755 3.19272 23.1288 0 19.2471 0C15.3655 0 12.2188 3.19272 12.2188 7.13115C12.2188 11.0696 15.3655 14.2623 19.2471 14.2623ZM19.2471 11.9672C21.8795 11.9672 24.0135 9.80203 24.0135 7.13115C24.0135 4.46026 21.8795 2.29508 19.2471 2.29508C16.6147 2.29508 14.4808 4.46026 14.4808 7.13115C14.4808 9.80203 16.6147 11.9672 19.2471 11.9672Z" fill="white"/>
<path d="M6.42569 14.0984V2.41373H10.5426V0.296941H0V2.41373H4.11689V14.0984H6.42569Z" fill="white"/>
<path d="M37.516 10.9373C36.904 11.6711 36.0695 12.038 35.0125 12.038C33.9369 12.038 33.0931 11.6711 32.4812 10.9373C31.8506 10.2223 31.5354 9.22506 31.5354 7.94558V0.296941H29.2544V8.03025C29.2544 9.9871 29.7829 11.5112 30.84 12.6025C31.897 13.6938 33.2878 14.2395 35.0125 14.2395C36.7371 14.2395 38.128 13.6938 39.185 12.6025C40.2421 11.5112 40.7706 9.9871 40.7706 8.03025V0.296941H38.4618V7.94558C38.4618 9.20624 38.1465 10.2035 37.516 10.9373Z" fill="white"/>
<path fill-rule="evenodd" clip-rule="evenodd" d="M52.3159 9.07453L55.8764 14.0984H52.9556L49.7011 9.44144H46.6969V14.0984H44.3881V0.296941H49.4507C51.5092 0.296941 52.9835 0.654442 53.8736 1.36944C54.7823 2.06563 55.2366 3.20399 55.2366 4.78452C55.2366 7.06124 54.263 8.49124 52.3159 9.07453ZM49.5342 7.35288C50.8138 7.35288 51.6946 7.15532 52.1768 6.76018C52.6589 6.36505 52.9 5.69709 52.9 4.7563C52.9 3.85313 52.6589 3.24162 52.1768 2.92175C51.6946 2.58307 50.8323 2.41373 49.5898 2.41373H46.6969V7.35288H49.5342Z" fill="white"/>
<path fill-rule="evenodd" clip-rule="evenodd" d="M57.9433 7.21311L57.9438 7.21352C57.9435 7.1861 57.9433 7.15864 57.9433 7.13115C57.9433 3.19272 61.09 0 64.9717 0C68.8533 0 72 3.19272 72 7.13115C72 7.15865 71.9998 7.18611 71.9995 7.21353L72 7.21311C72 13.3159 65.0525 20 65.0525 20C65.0525 20 57.9433 13.3159 57.9433 7.21311ZM64.9717 11.9672C67.604 11.9672 69.738 9.80203 69.738 7.13115C69.738 4.46026 67.604 2.29508 64.9717 2.29508C62.3393 2.29508 60.2053 4.46026 60.2053 7.13115C60.2053 9.80203 62.3393 11.9672 64.9717 11.9672Z" fill="white"/>
</svg>
